<svg xmlns="http://www.w3.org/2000/svg" width="71" height="55" viewBox="0 0 71 55">
  <defs>
    <style>
      .cls-1 {
        fill: #00c6bf;
        fill-rule: evenodd;
      }
    </style>
  </defs>
  <path id="Icon" class="cls-1" d="M945,1000h32v-3H945v3Zm46-55H930a4.85,4.85,0,0,0-5,5v36c0,2.89,2.115,5.994,5,6h61c2.887-.006,4.986-3.11,5-6V950A4.856,4.856,0,0,0,991,945Zm2.03,41.231c0,0.9-1.139,2.769-2.03,2.769H930c-0.9,0-2.037-1.873-2.037-2.769V950.092A2.483,2.483,0,0,1,930,948h61a2.482,2.482,0,0,1,2.03,2.092v36.139Z" transform="translate(-925 -945)"/>
</svg>
