<svg xmlns="http://www.w3.org/2000/svg" width="130.654" height="193.781" viewBox="0 0 130.654 193.781">
  <defs>
    <style>
      .cls-1 {
        fill: #eff7fa;
        fill-rule: evenodd;
      }
    </style>
  </defs>
  <path id="Path" class="cls-1" d="M1025.32,1001.01H894.672q0-23.534,11.058-40.25a109.9,109.9,0,0,1,14.789-17.1q9.645-9.387,23.79-20.832,12.6-10.157,21.217-17.874a115.223,115.223,0,0,0,13.888-14.467,46.284,46.284,0,0,0,7.522-13.309,44.156,44.156,0,0,0,2.25-14.4q0-12.346-6.944-19.225t-19.8-6.879a25.549,25.549,0,0,0-10.287,2.122,24.226,24.226,0,0,0-8.615,6.365,35.718,35.718,0,0,0-6.236,10.609,48.156,48.156,0,0,0-3.024,14.723H898.4a81.5,81.5,0,0,1,6.237-26.1,62.516,62.516,0,0,1,13.437-19.933,58.4,58.4,0,0,1,19.738-12.729,67.778,67.778,0,0,1,25.139-4.5,75.229,75.229,0,0,1,26.362,4.309,55.7,55.7,0,0,1,19.415,11.83,50.26,50.26,0,0,1,11.96,17.746,58.916,58.916,0,0,1,4.12,22.181,66.684,66.684,0,0,1-2.96,20.252,64.254,64.254,0,0,1-8.87,17.682q-5.535,7.716-16.656,18.453t-27.2,24.239q-9.518,8.1-16.4,14.338a127.87,127.87,0,0,0-10.222,10.1h82.812v32.663Z" transform="translate(-894.656 -807.219)"/>
</svg>
