<svg xmlns="http://www.w3.org/2000/svg" width="129.88" height="196.871" viewBox="0 0 129.88 196.871">
  <defs>
    <style>
      .cls-1 {
        fill: #eff7fa;
        fill-rule: evenodd;
      }
    </style>
  </defs>
  <path id="_3" data-name="3" class="cls-1" d="M1397.58,859.43a47.408,47.408,0,0,1-4.37,19.868,43.686,43.686,0,0,1-13.38,16.524,46.52,46.52,0,0,1,20,18.968,55.776,55.776,0,0,1,6.88,27.71,60.779,60.779,0,0,1-5.02,24.947,58.609,58.609,0,0,1-13.82,19.482,62.7,62.7,0,0,1-20.7,12.665,72,72,0,0,1-25.66,4.506,70.555,70.555,0,0,1-25.46-4.441,58.362,58.362,0,0,1-33.5-32.019,73.421,73.421,0,0,1-5.72-25.4h36.14a41.332,41.332,0,0,0,1.86,12.473,30.412,30.412,0,0,0,5.53,10.352,26.434,26.434,0,0,0,8.94,7.007,27.465,27.465,0,0,0,12.21,2.574,30.17,30.17,0,0,0,12.16-2.38,27.375,27.375,0,0,0,9.32-6.559,28.5,28.5,0,0,0,5.91-10.03,38.354,38.354,0,0,0,2.06-12.794q0-14.4-8.36-21.925t-24.69-7.522h-14.78V884.12h11.18q27.645,0,27.65-25.075,0-10.929-5.72-16.653t-16.4-5.722q-22.11,0-25.2,28.418h-35.75a76.206,76.206,0,0,1,6.75-24.946,59.257,59.257,0,0,1,13.18-18.131,53.631,53.631,0,0,1,18.33-11.058,64.891,64.891,0,0,1,22.18-3.731,70.563,70.563,0,0,1,23.98,3.858,54.318,54.318,0,0,1,18.39,10.8,47.173,47.173,0,0,1,11.76,16.524A52.6,52.6,0,0,1,1397.58,859.43Z" transform="translate(-1276.84 -807.219)"/>
</svg>
