<svg xmlns="http://www.w3.org/2000/svg" width="59.062" height="59.061" viewBox="0 0 59.062 59.061">
  <defs>
    <style>
      .cls-1 {
        fill: #00c6bf;
        fill-rule: evenodd;
      }
    </style>
  </defs>
  <path id="Icon" class="cls-1" d="M577.671,951.92l4.97,4.973a1.539,1.539,0,0,1,0,2.173h0L550.99,990.714l2.086,2.087,31.652-31.649a4.5,4.5,0,0,0,0-6.346l-12.035-12.032a4.5,4.5,0,0,0-6.35,0L534.7,974.422l2.087,2.087,31.646-31.648a1.54,1.54,0,0,1,2.174,0l4.976,4.972L545.565,979.85l2.087,2.087Zm-44.818,30.61a3.311,3.311,0,0,0-2.292-1.1,2.384,2.384,0,0,0-1.917.985A3.633,3.633,0,0,0,528,984.3l-1.022,11.924h0a3.04,3.04,0,0,0-.02.386,3.866,3.866,0,0,0,3.914,3.927h0.011c0.116,0,.231-0.01.35-0.02L543.2,999.5a3.633,3.633,0,0,0,1.88-.646,2.385,2.385,0,0,0,.985-1.914,3.278,3.278,0,0,0-1.094-2.291Zm-1.843,15.053c-0.029,0-.077,0-0.125,0a0.9,0.9,0,0,1-.974-0.974s0-.047-0.009-0.121h0.016l1-11.72,11.808,11.808Z" transform="translate(-526.969 -941.469)"/>
</svg>
