<svg xmlns="http://www.w3.org/2000/svg" width="63.19" height="58" viewBox="0 0 63.19 58">
  <defs>
    <style>
      .cls-1 {
        fill: #00c6bf;
        fill-rule: evenodd;
      }
    </style>
  </defs>
  <path id="Icon" class="cls-1" d="M1369,964h-14a18.506,18.506,0,0,0-3.42-9.256A10.034,10.034,0,0,0,1344,950h-15c-0.36-1.96-1.94-4-4-4h-4a3.874,3.874,0,0,0-4,4v7h-6a1.031,1.031,0,0,0-1,1c0,1.159.23,2,1,2h6v12l-5.78.108a1.414,1.414,0,0,0-1.41,1.4h0a1.416,1.416,0,0,0,1.41,1.4L1317,975v6a3.874,3.874,0,0,0,4,4h4a4.627,4.627,0,0,0,4-3h15s-0.38.038-.37,0.038h0.55V982c3.03-.223,5.62-2.154,7.4-4.908A21.674,21.674,0,0,0,1355,967h14c0.76,0,1,1.24,1,2v24a0.823,0.823,0,0,1-1,1h-31a3.867,3.867,0,0,0-4,4v6h3l-0.03-5.609a1.415,1.415,0,0,1,1.4-1.4h30.61A3.885,3.885,0,0,0,1373,993V969C1372.99,966.678,1371.32,964,1369,964Zm-42.25,16.518a1.418,1.418,0,0,1-1.4,1.4h-3.85a1.427,1.427,0,0,1-1.41-1.4V950.557A2.106,2.106,0,0,1,1322,949h3a1.908,1.908,0,0,1,1.75,1.557v29.961ZM1330,979V953h11v26h-11Zm19.23-3.439A7.268,7.268,0,0,1,1344,979V953a7.019,7.019,0,0,1,5.23,3.274A19.313,19.313,0,0,1,1349.23,975.561Z" transform="translate(-1309.81 -946)"/>
</svg>
