<svg 
 xmlns="http://www.w3.org/2000/svg"
 xmlns:xlink="http://www.w3.org/1999/xlink"
 width="19px" height="19px">
<path fill-rule="evenodd"  fill="rgb(255, 255, 255)"
 d="M18.257,11.294 C18.141,11.864 17.964,12.428 17.735,12.968 C17.513,13.493 17.235,14.005 16.913,14.481 C16.591,14.954 16.226,15.393 15.819,15.799 C15.417,16.202 14.974,16.567 14.499,16.882 C14.020,17.206 13.509,17.481 12.979,17.706 C12.440,17.934 11.874,18.108 11.298,18.225 C10.712,18.345 10.104,18.407 9.501,18.407 C8.894,18.407 8.288,18.345 7.700,18.225 C7.126,18.108 6.559,17.934 6.019,17.706 C5.491,17.481 4.977,17.206 4.499,16.882 C4.028,16.567 3.583,16.202 3.177,15.799 C2.774,15.393 2.405,14.954 2.089,14.481 C1.765,14.005 1.487,13.493 1.263,12.968 C1.034,12.428 0.858,11.864 0.741,11.294 C0.620,10.708 0.560,10.104 0.560,9.499 C0.560,8.897 0.620,8.292 0.741,7.708 C0.858,7.135 1.034,6.569 1.263,6.034 C1.487,5.505 1.765,4.995 2.089,4.520 C2.405,4.048 2.774,3.604 3.177,3.202 C3.583,2.800 4.028,2.435 4.499,2.114 C4.977,1.794 5.491,1.516 6.019,1.292 C6.559,1.067 7.126,0.892 7.700,0.774 C8.288,0.653 8.894,0.593 9.501,0.593 C10.104,0.593 10.712,0.653 11.298,0.774 C11.874,0.892 12.440,1.067 12.979,1.292 C13.509,1.516 14.020,1.794 14.499,2.114 C14.974,2.435 15.417,2.800 15.819,3.202 C16.226,3.604 16.591,4.048 16.913,4.520 C17.235,4.995 17.513,5.505 17.735,6.034 C17.964,6.569 18.141,7.135 18.257,7.708 C18.378,8.292 18.440,8.897 18.440,9.499 C18.440,10.104 18.378,10.708 18.257,11.294 ZM13.765,15.808 C15.479,14.655 16.698,12.827 17.036,10.708 C16.880,10.657 14.745,9.981 12.280,10.376 C13.280,13.118 13.688,15.349 13.765,15.808 ZM9.501,17.106 C10.556,17.106 11.565,16.893 12.479,16.503 C12.368,15.839 11.923,13.509 10.849,10.727 C10.831,10.733 10.817,10.739 10.798,10.745 C6.358,12.284 4.868,15.366 4.813,15.485 C6.108,16.493 7.729,17.106 9.501,17.106 ZM1.864,9.499 C1.864,11.452 2.604,13.233 3.817,14.579 C3.821,14.575 5.911,10.885 10.028,9.557 C10.128,9.528 10.227,9.497 10.331,9.467 C10.138,9.036 9.927,8.600 9.710,8.175 C5.778,9.347 2.007,9.262 1.872,9.259 C1.870,9.339 1.864,9.419 1.864,9.499 ZM7.647,2.120 C7.655,2.120 7.657,2.119 7.660,2.118 C7.664,2.116 7.666,2.115 7.671,2.114 C7.663,2.116 7.647,2.120 7.647,2.120 ZM6.241,2.622 C4.114,3.620 2.524,5.575 2.028,7.931 C2.229,7.936 5.413,7.973 9.077,7.003 C7.755,4.663 6.345,2.757 6.241,2.622 ZM9.499,1.893 C8.880,1.893 8.278,1.970 7.702,2.108 C7.815,2.259 9.249,4.157 10.554,6.546 C13.436,5.469 14.522,3.821 14.542,3.790 C13.198,2.608 11.433,1.893 9.499,1.893 ZM15.395,4.669 C15.382,4.688 14.157,6.454 11.142,7.679 C11.321,8.040 11.489,8.409 11.649,8.782 C11.706,8.915 11.761,9.044 11.815,9.175 C14.438,8.847 17.020,9.399 17.132,9.422 C17.112,7.618 16.468,5.964 15.395,4.669 Z"/>
</svg>