<svg 
 xmlns="http://www.w3.org/2000/svg"
 xmlns:xlink="http://www.w3.org/1999/xlink"
 width="18px" height="18px">
<path fill-rule="evenodd"  fill="rgb(255, 255, 255)"
 d="M15.502,3.965 L15.502,6.389 L14.285,6.389 L14.285,3.965 L11.856,3.965 L11.856,2.757 L14.285,2.757 L14.285,0.333 L15.502,0.333 L15.502,2.757 L17.934,2.757 L17.934,3.965 L15.502,3.965 ZM8.871,1.323 C9.848,1.880 10.366,3.028 10.366,4.292 C10.366,5.452 9.721,6.387 8.811,7.098 C7.919,7.790 7.752,8.081 7.752,8.669 C7.752,9.171 8.814,9.921 9.303,10.288 C11.004,11.557 11.348,12.356 11.348,13.948 C11.348,15.932 9.203,17.907 5.712,17.907 C2.650,17.907 0.066,16.665 0.066,14.681 C0.066,12.665 2.210,10.567 5.271,10.567 C5.605,10.567 5.911,10.559 6.228,10.559 C5.809,10.151 5.471,9.802 5.471,9.188 C5.471,8.825 5.586,8.477 5.750,8.165 C5.584,8.177 5.413,8.186 5.239,8.186 C2.725,8.186 1.259,6.427 1.259,4.218 C1.259,2.055 3.488,0.093 6.162,0.093 L11.433,0.093 L10.254,1.323 L8.871,1.323 ZM5.966,11.186 C3.848,11.163 2.056,12.520 2.056,14.091 C2.056,15.694 3.584,17.028 5.701,17.028 C8.677,17.028 9.714,15.774 9.714,14.173 C9.714,13.979 9.689,13.790 9.645,13.606 C9.412,12.698 8.486,12.202 7.337,11.407 C6.920,11.272 6.458,11.192 5.966,11.186 ZM8.249,4.372 C8.004,2.512 6.789,0.989 5.369,0.946 C3.948,0.903 2.994,2.325 3.242,4.184 C3.486,6.042 4.835,7.339 6.257,7.384 C7.676,7.425 8.493,6.229 8.249,4.372 Z"/>
</svg>