<svg 
 xmlns="http://www.w3.org/2000/svg"
 xmlns:xlink="http://www.w3.org/1999/xlink"
 width="19px" height="16px">
<path fill-rule="evenodd"  fill="rgb(255, 255, 255)"
 d="M0.560,13.595 C2.184,14.633 4.110,15.238 6.184,15.238 C12.931,15.238 16.621,9.668 16.621,4.840 C16.621,4.681 16.618,4.523 16.610,4.367 C17.327,3.853 17.948,3.209 18.440,2.474 C17.784,2.768 17.077,2.961 16.334,3.049 C17.090,2.599 17.672,1.883 17.946,1.029 C17.238,1.447 16.452,1.752 15.616,1.914 C14.948,1.205 13.994,0.761 12.940,0.761 C10.913,0.761 9.272,2.396 9.272,4.416 C9.272,4.703 9.303,4.980 9.366,5.248 C6.317,5.096 3.613,3.640 1.805,1.430 C1.491,1.970 1.309,2.597 1.309,3.268 C1.309,4.535 1.955,5.654 2.940,6.309 C2.338,6.293 1.774,6.127 1.278,5.852 L1.278,5.898 C1.278,7.668 2.543,9.146 4.220,9.482 C3.914,9.566 3.589,9.611 3.254,9.611 C3.018,9.611 2.788,9.588 2.565,9.545 C3.032,10.998 4.386,12.055 5.991,12.082 C4.735,13.062 3.155,13.646 1.435,13.646 C1.139,13.646 0.848,13.631 0.560,13.595 Z"/>
</svg>